<svg xmlns="http://www.w3.org/2000/svg" version="1.1" xmlns:xlink="http://www.w3.org/1999/xlink" xmlns:svgjs="http://svgjs.dev/svgjs" viewBox="0 0 1920 1080" class="overflow-hidden rounded-md drop-shadow-lg transition duration-300" style="overflow: hidden; height: 85vh;"><rect width="1920" height="1080" fill="#e6e6e6"/><g clip-path="url(&quot;#SvgjsClipPath1130&quot;)"><g transform="matrix(0.4677471395371702,1.050577276288991,-1.050577276288991,0.4677471395371702,1071.165085274691,-707.1049052073183)"><path d="M0,-1080C5.937851186806573,-993.4906295750518,40.07075262258208,-708.9437392642761,35.62710712083944,-560.9437774503109C31.183461619096803,-412.9438156363457,-28.731848610409447,-342.05976116110605,-26.66187301045582,-192.00022911620846C-24.591897410502195,-41.94069707131084,34.58330485438951,182.93035315874943,48.0469607205612,339.4134148190748C61.510616586732894,495.8964764794001,65.85603853088419,607.4435507378034,54.12006218657433,746.8981408457437C42.384085842264476,886.3527309536839,-21.097265774804132,1023.2849662817229,-22.36889734529794,1176.1409554667162C-23.640528915791744,1328.9969446517093,42.762123206061844,1500.0575685334895,46.4902727636115,1664.0340759557034C50.21842232116116,1828.0105833779173,7.74837879393525,2077.339012659284,0,2160L 1920 2160 L 1920 -1080 Z" fill="url(&quot;#SvgjsLinearGradient1125&quot;)"/><path d="M384,-1080C379.1199517430936,-991.58122347683,352.53344210619576,-722.5686876486403,354.7197104585617,-549.4873408609798C356.9059788109276,-376.4059940733192,391.3938366840827,-215.88349604523847,397.1176101141954,-41.51191927403667C402.84138354430803,132.85965749716513,396.36774505621594,318.513190558995,389.0623510392377,496.7421197662311C381.7569570222594,674.9710489734672,361.6711580782235,830.0138922937484,353.28524601232596,1027.8616559693799C344.8993339464284,1225.7094196450114,333.62775297924003,1495.1389778149164,338.74687864385237,1683.82870182002C343.8660043084647,1872.5184258251234,376.4578131073087,2080.6381169700035,384,2160L 1920 2160 L 1920 -1080 Z" fill="url(&quot;#SvgjsLinearGradient1126&quot;)"/><path d="M768,-1080C773.8424486677293,-991.0966421077819,796.3129231278813,-720.3024086675342,803.0546920063757,-546.5798526466912C809.7964608848702,-372.8572966258481,809.4676088394151,-217.57827168694618,808.4506132709663,-37.66466387494154C807.4336177025175,142.2489439370631,798.5026629743753,338.75738127761474,796.9527185956827,532.9017942253366C795.40277421699,727.0462071730585,807.1327715901468,952.4704022508492,799.1509469988101,1127.2018138113897C791.1691224074734,1301.9332253719301,754.253595547464,1409.1572325571442,749.0617710476623,1581.2902635885794C743.8699465478606,1753.4232946200145,764.8436285079438,2063.548377264763,768,2160L 1920 2160 L 1920 -1080 Z" fill="url(&quot;#SvgjsLinearGradient1127&quot;)"/><path d="M1152,-1080C1158.5515727692455,-997.7894251194974,1188.99597807792,-747.4875510442987,1191.3094366154721,-586.7365507169844C1193.6228951530243,-425.9855503896701,1178.4722171267679,-258.98590448425466,1165.8807512253131,-115.493998036114C1153.2892853238584,27.997908412026646,1112.8517799585206,136.4694095984839,1115.7606412067432,274.21488797185947C1118.6695024549658,411.960366345235,1179.5890139188446,553.56207917509,1183.3339187146487,710.9788722041394C1187.0788235104528,868.3956652331888,1133.830263586713,1051.9036497508419,1138.2300699815687,1218.715646146156C1142.6298763764244,1385.52764254147,1207.4377687473773,1554.9701249337163,1209.7327570837824,1711.8508505760237C1212.0277454201876,1868.7315762183312,1161.6221261806304,2085.308475096004,1152,2160L 1920 2160 L 1920 -1080 Z" fill="url(&quot;#SvgjsLinearGradient1128&quot;)"/><path d="M1536,-1080C1531.9393724933072,-987.638686394669,1518.144235940005,-696.7518081696713,1511.6362349598433,-525.8321183680138C1505.1282339796815,-354.9124285663562,1494.2082221734531,-227.4628509713184,1496.9519941190288,-54.48186119005473C1499.6957660646044,118.49912859120894,1516.9168684074243,329.46981048055295,1528.0988666332973,512.0538203195683C1539.2808648591704,694.6378301585837,1555.9415028185656,847.9489382074973,1564.0439834742665,1041.0221978440377C1572.1464641299674,1234.095457480578,1581.387747813214,1483.9970777794836,1576.713750567503,1670.4933781388106C1572.039753321792,1856.9896784981377,1542.7856250945838,2078.4155630231353,1536,2160L 1920 2160 L 1920 -1080 Z" fill="url(&quot;#SvgjsLinearGradient1129&quot;)"/></g></g><defs><linearGradient x1="0.1" y1="0" x2="0" y2="1" id="SvgjsLinearGradient1125"><stop stop-color="#e6e6e6" offset="0"/><stop stop-color="#e6e6e6" offset="0"/></linearGradient><linearGradient x1="0.1" y1="0" x2="0" y2="1" id="SvgjsLinearGradient1126"><stop stop-color="#ebebeb" offset="0"/><stop stop-color="#ebebeb" offset="0.2"/></linearGradient><linearGradient x1="0.1" y1="0" x2="0" y2="1" id="SvgjsLinearGradient1127"><stop stop-color="#f0f0f0" offset="0"/><stop stop-color="#f0f0f0" offset="0.4"/></linearGradient><linearGradient x1="0.1" y1="0" x2="0" y2="1" id="SvgjsLinearGradient1128"><stop stop-color="#f5f5f5" offset="0"/><stop stop-color="#f5f5f5" offset="0.6"/></linearGradient><linearGradient x1="0.1" y1="0" x2="0" y2="1" id="SvgjsLinearGradient1129"><stop stop-color="#fafafa" offset="0"/><stop stop-color="#fafafa" offset="0.8"/></linearGradient><clipPath id="SvgjsClipPath1130"><rect width="1920" height="1080"/></clipPath></defs></svg>